<svg width="125" height="34" viewBox="0 0 125 34" fill="none" xmlns="http://www.w3.org/2000/svg">
<path fill-rule="evenodd" clip-rule="evenodd" d="M101.413 0C111.114 0 118.978 6.835 118.978 16.5C118.978 16.8465 118.945 24.5 118.945 24.5C118.945 28.6985 121.425 32.312 125 33.9915C120.331 33.9055 115.976 32.5495 112.264 30.2555C109.276 32.5985 105.51 33.9995 101.413 33.9995H101.565C91.8639 33.9995 84 26.1645 84 16.4995C84 6.8345 91.8639 0 101.565 0H101.413Z" fill="#007AFF"/>
<rect width="119" height="34" rx="17" fill="#007AFF"/>
<path d="M20.417 21.861C21.063 21.861 21.539 21.776 21.845 21.606C22.1623 21.436 22.321 21.164 22.321 20.79C22.321 20.4047 22.168 20.0987 21.862 19.872C21.556 19.6453 21.0517 19.3903 20.349 19.107C20.009 18.971 19.6803 18.835 19.363 18.699C19.057 18.5517 18.7907 18.3817 18.564 18.189C18.3373 17.9963 18.156 17.764 18.02 17.492C17.884 17.22 17.816 16.8857 17.816 16.489C17.816 15.707 18.105 15.0893 18.683 14.636C19.261 14.1713 20.0487 13.939 21.046 13.939C21.2953 13.939 21.5447 13.956 21.794 13.99C22.0433 14.0127 22.2757 14.0467 22.491 14.092C22.7063 14.126 22.8933 14.1657 23.052 14.211C23.222 14.2563 23.3523 14.296 23.443 14.33L23.154 15.69C22.984 15.5993 22.7177 15.5087 22.355 15.418C21.9923 15.316 21.556 15.265 21.046 15.265C20.604 15.265 20.2187 15.3557 19.89 15.537C19.5613 15.707 19.397 15.979 19.397 16.353C19.397 16.5457 19.431 16.7157 19.499 16.863C19.5783 17.0103 19.6917 17.1463 19.839 17.271C19.9977 17.3843 20.1903 17.492 20.417 17.594C20.6437 17.696 20.9157 17.8037 21.233 17.917C21.6523 18.0757 22.0263 18.2343 22.355 18.393C22.6837 18.5403 22.9613 18.716 23.188 18.92C23.426 19.124 23.6073 19.3733 23.732 19.668C23.8567 19.9513 23.919 20.3027 23.919 20.722C23.919 21.538 23.613 22.1557 23.001 22.575C22.4003 22.9943 21.539 23.204 20.417 23.204C19.635 23.204 19.023 23.136 18.581 23C18.139 22.8753 17.8387 22.779 17.68 22.711L17.969 21.351C18.1503 21.419 18.4393 21.521 18.836 21.657C19.2327 21.793 19.7597 21.861 20.417 21.861ZM25.0439 18.597C25.0439 17.815 25.1572 17.135 25.3839 16.557C25.6106 15.9677 25.9109 15.4803 26.2849 15.095C26.6589 14.7097 27.0896 14.4207 27.5769 14.228C28.0642 14.0353 28.5629 13.939 29.0729 13.939C30.2629 13.939 31.1752 14.313 31.8099 15.061C32.4446 15.7977 32.7619 16.9253 32.7619 18.444C32.7619 18.512 32.7619 18.6027 32.7619 18.716C32.7619 18.818 32.7562 18.9143 32.7449 19.005H26.6929C26.7609 19.923 27.0272 20.62 27.4919 21.096C27.9566 21.572 28.6819 21.81 29.6679 21.81C30.2232 21.81 30.6879 21.7647 31.0619 21.674C31.4472 21.572 31.7362 21.4757 31.9289 21.385L32.1499 22.711C31.9572 22.813 31.6172 22.9207 31.1299 23.034C30.6539 23.1473 30.1099 23.204 29.4979 23.204C28.7272 23.204 28.0586 23.0907 27.4919 22.864C26.9366 22.626 26.4776 22.303 26.1149 21.895C25.7522 21.487 25.4802 21.0053 25.2989 20.45C25.1289 19.8833 25.0439 19.2657 25.0439 18.597ZM31.1129 17.73C31.1242 17.016 30.9429 16.4323 30.5689 15.979C30.2062 15.5143 29.7019 15.282 29.0559 15.282C28.6932 15.282 28.3702 15.3557 28.0869 15.503C27.8149 15.639 27.5826 15.8203 27.3899 16.047C27.1972 16.2737 27.0442 16.5343 26.9309 16.829C26.8289 17.1237 26.7609 17.424 26.7269 17.73H31.1129ZM34.623 14.415C34.9857 14.3243 35.4673 14.228 36.068 14.126C36.6687 14.024 37.36 13.973 38.142 13.973C38.8447 13.973 39.4283 14.075 39.893 14.279C40.3577 14.4717 40.726 14.7493 40.998 15.112C41.2813 15.4633 41.4797 15.8883 41.593 16.387C41.7063 16.8857 41.763 17.4353 41.763 18.036V23H40.182V18.376C40.182 17.832 40.1423 17.3673 40.063 16.982C39.995 16.5967 39.876 16.285 39.706 16.047C39.536 15.809 39.3093 15.639 39.026 15.537C38.7427 15.4237 38.3913 15.367 37.972 15.367C37.802 15.367 37.6263 15.3727 37.445 15.384C37.2637 15.3953 37.088 15.4123 36.918 15.435C36.7593 15.4463 36.612 15.4633 36.476 15.486C36.3513 15.5087 36.2607 15.5257 36.204 15.537V23H34.623V14.415ZM49.6867 16.03C49.4941 15.8713 49.2164 15.7183 48.8537 15.571C48.4911 15.4237 48.0944 15.35 47.6637 15.35C47.2104 15.35 46.8194 15.435 46.4907 15.605C46.1734 15.7637 45.9127 15.9903 45.7087 16.285C45.5047 16.5683 45.3574 16.9083 45.2667 17.305C45.1761 17.7017 45.1307 18.1267 45.1307 18.58C45.1307 19.6113 45.3857 20.4103 45.8957 20.977C46.4057 21.5323 47.0857 21.81 47.9357 21.81C48.3664 21.81 48.7234 21.793 49.0067 21.759C49.3014 21.7137 49.5281 21.6683 49.6867 21.623V16.03ZM49.6867 10.08L51.2677 9.808V22.745C50.9051 22.847 50.4404 22.949 49.8737 23.051C49.3071 23.153 48.6554 23.204 47.9187 23.204C47.2387 23.204 46.6267 23.0963 46.0827 22.881C45.5387 22.6657 45.0741 22.3597 44.6887 21.963C44.3034 21.5663 44.0031 21.0847 43.7877 20.518C43.5837 19.94 43.4817 19.294 43.4817 18.58C43.4817 17.9 43.5667 17.2767 43.7367 16.71C43.9181 16.1433 44.1787 15.656 44.5187 15.248C44.8587 14.84 45.2724 14.5227 45.7597 14.296C46.2584 14.0693 46.8251 13.956 47.4597 13.956C47.9697 13.956 48.4174 14.024 48.8027 14.16C49.1994 14.296 49.4941 14.4263 49.6867 14.551V10.08ZM60.942 23.204C60.228 23.204 59.599 23.0907 59.055 22.864C58.5224 22.6373 58.069 22.32 57.695 21.912C57.3324 21.504 57.0604 21.0223 56.879 20.467C56.6977 19.9003 56.607 19.277 56.607 18.597C56.607 17.917 56.7034 17.2937 56.896 16.727C57.1 16.1603 57.3834 15.673 57.746 15.265C58.1087 14.8457 58.5507 14.5227 59.072 14.296C59.6047 14.058 60.194 13.939 60.84 13.939C61.2367 13.939 61.6334 13.973 62.03 14.041C62.4267 14.109 62.8064 14.2167 63.169 14.364L62.812 15.707C62.574 15.5937 62.2964 15.503 61.979 15.435C61.673 15.367 61.3444 15.333 60.993 15.333C60.109 15.333 59.429 15.6107 58.953 16.166C58.4884 16.7213 58.256 17.5317 58.256 18.597C58.256 19.073 58.307 19.5093 58.409 19.906C58.5224 20.3027 58.6924 20.6427 58.919 20.926C59.157 21.2093 59.4574 21.4303 59.82 21.589C60.1827 21.7363 60.6247 21.81 61.146 21.81C61.5654 21.81 61.945 21.7703 62.285 21.691C62.625 21.6117 62.8914 21.5267 63.084 21.436L63.305 22.762C63.2144 22.8187 63.084 22.8753 62.914 22.932C62.744 22.9773 62.5514 23.017 62.336 23.051C62.1207 23.0963 61.8884 23.1303 61.639 23.153C61.401 23.187 61.1687 23.204 60.942 23.204ZM67.8564 13.973C67.9924 13.973 68.1454 13.9843 68.3154 14.007C68.4967 14.0183 68.6724 14.041 68.8424 14.075C69.0124 14.0977 69.1654 14.126 69.3014 14.16C69.4487 14.1827 69.5564 14.2053 69.6244 14.228L69.3524 15.605C69.2277 15.5597 69.0181 15.5087 68.7234 15.452C68.4401 15.384 68.0717 15.35 67.6184 15.35C67.3237 15.35 67.0291 15.384 66.7344 15.452C66.4511 15.5087 66.2641 15.5483 66.1734 15.571V23H64.5924V14.534C64.9664 14.398 65.4311 14.2733 65.9864 14.16C66.5417 14.0353 67.1651 13.973 67.8564 13.973ZM70.0682 24.649C70.1929 24.7057 70.3516 24.7567 70.5442 24.802C70.7482 24.8587 70.9466 24.887 71.1392 24.887C71.7626 24.887 72.2499 24.7453 72.6012 24.462C72.9526 24.19 73.2699 23.7423 73.5532 23.119C72.8392 21.759 72.1706 20.3197 71.5472 18.801C70.9352 17.271 70.4252 15.724 70.0172 14.16H71.7172C71.8419 14.67 71.9892 15.2197 72.1592 15.809C72.3406 16.3983 72.5389 17.0047 72.7542 17.628C72.9696 18.2513 73.2019 18.8747 73.4512 19.498C73.7006 20.1213 73.9612 20.722 74.2332 21.3C74.6639 20.11 75.0379 18.9313 75.3552 17.764C75.6726 16.5967 75.9729 15.3953 76.2562 14.16H77.8882C77.4802 15.826 77.0269 17.4297 76.5282 18.971C76.0296 20.501 75.4912 21.9347 74.9132 23.272C74.6866 23.782 74.4486 24.2183 74.1992 24.581C73.9612 24.955 73.6949 25.261 73.4002 25.499C73.1056 25.737 72.7712 25.9127 72.3972 26.026C72.0346 26.1393 71.6209 26.196 71.1562 26.196C71.0316 26.196 70.9012 26.1847 70.7652 26.162C70.6292 26.1507 70.4932 26.128 70.3572 26.094C70.2326 26.0713 70.1136 26.043 70.0002 26.009C69.8982 25.975 69.8246 25.9467 69.7792 25.924L70.0682 24.649ZM85.2824 18.597C85.2824 17.5657 85.0274 16.7723 84.5174 16.217C84.0074 15.6617 83.3274 15.384 82.4774 15.384C82.0014 15.384 81.6274 15.401 81.3554 15.435C81.0948 15.469 80.8851 15.5087 80.7264 15.554V21.13C80.9191 21.2887 81.1968 21.4417 81.5594 21.589C81.9221 21.7363 82.3188 21.81 82.7494 21.81C83.2028 21.81 83.5881 21.7307 83.9054 21.572C84.2341 21.402 84.5004 21.1753 84.7044 20.892C84.9084 20.5973 85.0558 20.2573 85.1464 19.872C85.2371 19.4753 85.2824 19.0503 85.2824 18.597ZM86.9314 18.597C86.9314 19.2657 86.8408 19.8833 86.6594 20.45C86.4894 21.0167 86.2344 21.504 85.8944 21.912C85.5544 22.32 85.1351 22.6373 84.6364 22.864C84.1491 23.0907 83.5881 23.204 82.9534 23.204C82.4434 23.204 81.9901 23.136 81.5934 23C81.2081 22.864 80.9191 22.7337 80.7264 22.609V26.145H79.1454V14.432C79.5194 14.3413 79.9841 14.245 80.5394 14.143C81.1061 14.0297 81.7578 13.973 82.4944 13.973C83.1744 13.973 83.7864 14.0807 84.3304 14.296C84.8744 14.5113 85.3391 14.8173 85.7244 15.214C86.1098 15.6107 86.4044 16.098 86.6084 16.676C86.8238 17.2427 86.9314 17.883 86.9314 18.597ZM90.2252 14.16H93.5742V15.486H90.2252V19.566C90.2252 20.008 90.2592 20.3763 90.3272 20.671C90.3952 20.9543 90.4972 21.181 90.6332 21.351C90.7692 21.5097 90.9392 21.623 91.1432 21.691C91.3472 21.759 91.5852 21.793 91.8572 21.793C92.3332 21.793 92.7128 21.742 92.9962 21.64C93.2908 21.5267 93.4948 21.4473 93.6082 21.402L93.9142 22.711C93.7555 22.7903 93.4778 22.8867 93.0812 23C92.6845 23.1247 92.2312 23.187 91.7212 23.187C91.1205 23.187 90.6218 23.1133 90.2252 22.966C89.8398 22.8073 89.5282 22.575 89.2902 22.269C89.0522 21.963 88.8822 21.589 88.7802 21.147C88.6895 20.6937 88.6442 20.1723 88.6442 19.583V11.695L90.2252 11.423V14.16ZM102.747 18.58C102.747 19.2827 102.645 19.9173 102.441 20.484C102.237 21.0507 101.948 21.538 101.574 21.946C101.211 22.354 100.775 22.6713 100.265 22.898C99.7546 23.1133 99.1993 23.221 98.5986 23.221C97.9979 23.221 97.4426 23.1133 96.9326 22.898C96.4226 22.6713 95.9806 22.354 95.6066 21.946C95.2439 21.538 94.9606 21.0507 94.7566 20.484C94.5526 19.9173 94.4506 19.2827 94.4506 18.58C94.4506 17.8887 94.5526 17.2597 94.7566 16.693C94.9606 16.115 95.2439 15.622 95.6066 15.214C95.9806 14.806 96.4226 14.4943 96.9326 14.279C97.4426 14.0523 97.9979 13.939 98.5986 13.939C99.1993 13.939 99.7546 14.0523 100.265 14.279C100.775 14.4943 101.211 14.806 101.574 15.214C101.948 15.622 102.237 16.115 102.441 16.693C102.645 17.2597 102.747 17.8887 102.747 18.58ZM101.098 18.58C101.098 17.5827 100.871 16.795 100.418 16.217C99.9756 15.6277 99.3693 15.333 98.5986 15.333C97.8279 15.333 97.2159 15.6277 96.7626 16.217C96.3206 16.795 96.0996 17.5827 96.0996 18.58C96.0996 19.5773 96.3206 20.3707 96.7626 20.96C97.2159 21.538 97.8279 21.827 98.5986 21.827C99.3693 21.827 99.9756 21.538 100.418 20.96C100.871 20.3707 101.098 19.5773 101.098 18.58Z" fill="white"/>
</svg>
